<svg width="613" height="698" viewBox="0 0 613 698" fill="none" xmlns="http://www.w3.org/2000/svg">
<path fill-rule="evenodd" clip-rule="evenodd" d="M347.373 102.024C351.336 101.6 351.902 106.975 352.442 109.425C353.969 108.461 355.329 109.383 355.674 107.132C360.506 112.194 364.375 118.005 368.665 123.504C372.78 128.78 379.212 132.977 382.772 138.523C385.793 143.232 380.808 150.382 380.192 155.403C379.497 161.062 380.974 167.539 384.839 171.853C386.647 173.87 388.858 175.272 391.53 175.814C394.187 176.353 396.715 174.794 399.055 175.126C400.996 175.401 401.081 176.684 401.758 178.591C402.686 181.207 403.87 183.677 406.061 185.515C408.511 187.567 411.142 188.16 413.011 190.918C414.642 193.324 415.566 195.654 418.096 197.325C421.47 199.554 426.884 200.228 426.519 205.433C427.099 204.972 427.679 204.512 428.259 204.05C429.604 208.373 431.455 212.559 433.432 216.624C434.358 218.529 434.834 219.541 434.786 221.66C434.754 223.056 433.989 224.112 434.816 225.464C436.14 227.627 439.68 227.333 441.297 229.082C442.954 230.876 441.234 233.309 443.149 234.872C442.342 235.119 440.107 236.925 440.947 238.022C442.156 239.598 442.247 237.438 443.095 237.698C445.041 238.294 444.63 240.723 446.148 241.383C446.46 241.519 446.436 240.064 446.42 239.689L446.418 239.675L447.59 241.962C457.456 261.055 469.018 279.243 478.313 298.612L479.417 300.942C496.92 338.357 517.728 374.788 540.739 409.106C546.167 417.201 552.124 425.243 557.143 433.569C562.186 441.938 568.471 449.355 574.049 457.356C579.787 465.588 585.039 474.156 590.823 482.35C595.436 488.885 601.074 495.842 601 504.268C600.965 508.013 600.421 512.15 596.811 514.162C596.724 512.618 594.387 514.326 593.83 514.705C591.419 516.346 592.73 516.164 590.131 515.591C585.913 514.66 582.311 515.92 578.409 513.522C570.132 508.437 561.975 503.209 553.549 498.356C535.339 487.869 517.31 477.131 500.417 464.597C470.886 442.686 438.801 423.052 411.662 398.128C384.543 373.224 356.084 348.515 323.903 330.3C321.746 329.079 315.563 327.247 316.133 324.335C316.633 321.783 322.193 318.205 324.143 316.438C330.912 310.305 337.961 304.501 344.489 298.105C356.542 286.298 368.505 273.267 378.173 259.413C382.875 252.674 385.275 245.178 388.021 237.515C390.444 230.751 392.684 222.425 388.751 215.733C386.93 212.633 384.416 211.376 380.9 211.611C377.99 211.805 378.121 212.401 376.967 209.314C375.725 205.991 374.715 202.136 371.384 200.212C367.933 198.219 365.582 200.344 362.787 202.339C359.572 197.697 355.628 189.664 349.147 189.219C342.379 188.756 338.535 197.116 336.198 202.145C329.287 217.015 320.295 230.905 310.625 244.147C300.143 258.501 289.427 273.102 277.878 286.618C275.433 289.479 272.657 293.655 269.212 295.391C265.678 297.173 262.745 295.499 259.758 293.45C252.718 288.621 245.872 283.662 238.542 279.241C230.424 274.344 222.078 269.858 213.799 265.244C210.146 263.209 206.68 260.758 202.916 258.93C199.409 257.227 195.59 256.383 192 254.892C205.183 250.962 219.068 256.111 231.546 260.195C238.022 262.314 244.795 264.521 251.709 263.951C257.689 263.459 263.116 260.257 267.846 256.76C276.396 250.438 277.068 240.943 274.279 231.346C271.071 220.3 266.164 209.677 262.456 198.782C260.77 193.826 259.608 188.563 263.447 184.281C266.882 180.449 271.327 179.978 276.015 181.486C287.383 185.144 297.467 188.579 309.653 188.231C319.18 187.96 331.298 185.256 337.717 177.514C341.235 173.27 341.369 167.435 341.383 162.171C341.401 155.932 341.007 149.658 340.134 143.482C338.576 132.462 334.534 121.428 339.603 110.728C340.791 108.219 344.099 102.374 347.373 102.024ZM446.417 239.639L446.418 239.675L446.415 239.666C446.412 239.587 446.414 239.586 446.417 239.639ZM52.11 187.913C55.0886 183.792 63.2396 174.197 69.463 176.297C70.5497 176.663 71.335 177.747 72.0514 178.554C72.559 179.213 73.0624 179.875 73.5621 180.541C73.8725 181.416 74.4297 181.674 75.2344 181.316C77.4168 184.338 80.4966 186.621 81.7514 190.333C82.9935 194.011 86.329 197.578 88.2959 200.952C89.8176 203.561 93.2483 210.527 92.9857 213.79V222.119C92.676 225.356 86.6249 231.147 84.4969 233.336C79.2132 238.775 73.4738 239.471 65.6434 238.777C59.0098 238.189 50.4183 235.978 45.9277 230.705C41.6181 225.646 41.6792 217.806 42.3169 211.576C43.2075 202.875 47.0241 194.949 52.11 187.913ZM72.5203 189.294C71.306 187.038 68.6486 186.481 66.3138 186.748C63.9802 187.015 61.3017 187.211 59.1617 188.252C57.1856 189.214 56.1855 190.899 53.7224 190.333C54.6977 192.015 52.9498 192.986 52.6981 194.501C52.3744 196.447 53.0018 198.192 54.2875 199.669C56.9491 202.727 60.9247 202.668 64.6239 202.966C67.7514 203.218 71.5982 203.736 73.4357 206.666C74.6209 208.556 73.5458 209.917 74.1012 211.815C74.5096 213.214 76.2182 214.017 76.9655 215.218C79.4685 211.533 79.3807 203.641 77.8542 199.701C77.133 197.84 75.7693 195.417 74.6887 193.783C74.3353 193.247 73.5004 192.609 73.2783 192.167C72.8942 191.404 72.9402 190.073 72.5203 189.294Z" fill="#7FBBCA"/>
<path fill-rule="evenodd" clip-rule="evenodd" d="M364.309 680.712C368.838 678.941 374.42 679.768 379.167 679.853C385.128 679.961 391.105 680.413 397.048 680.878C408.461 681.773 419.816 681.395 431.239 682.462C436.91 682.992 442.585 683.481 448.26 683.964C453.229 684.387 458.999 685.705 463.96 684.757C466.008 684.365 471.536 682.438 470.512 679.439C469.721 677.125 463.498 675.698 461.471 675.04C456.702 673.489 451.778 672.378 446.957 670.996C444.481 670.287 442.015 669.523 439.408 669.77C437.195 669.979 434.864 671.63 432.622 671.44C429.307 671.16 427.598 666.996 425.166 665.16C421.294 662.235 418.424 663.798 415.455 667.021C413.26 669.403 411.17 673.008 407.568 673.222C402.987 673.493 402.095 669.565 404.117 666.234C405.979 663.165 411.049 660.019 411.321 656.194C411.493 653.777 407.627 647.308 405.401 646.388C401.659 644.842 396.369 648.937 392.986 650.194C387.077 652.388 381.045 654.331 375.062 656.313C370.97 657.668 364.898 657.788 364.125 662.583C363.158 668.587 364.336 674.683 364.309 680.712ZM130.118 588.419C131.308 585.783 132.557 584.284 130.179 581.838C128.849 580.47 126.973 579.797 125.664 578.378C123.697 576.245 120.615 570.415 124.831 568.947C128.861 567.543 132.256 573.152 135.499 574.384C139.615 575.948 142.165 573.326 142.754 569.393C143.51 564.34 142.678 559.059 143.282 553.943C143.872 548.927 145.624 544.762 146.968 539.96C147.88 536.704 148.995 533.426 144.86 532.704C141.068 532.042 136.67 533.617 132.825 533.828C126.828 534.157 120.759 534.46 114.812 535.359C108.172 536.363 108.293 543.153 106.626 548.704C102.584 562.161 97.1639 575.365 94.6401 589.238C93.5517 595.22 96.4365 599.317 99.7938 604.021C103.997 609.91 108.37 615.784 113.131 621.24C116.31 624.883 119.892 628.276 124.521 629.951C129.765 631.849 131.769 629.742 130.56 624.573C128.962 617.75 126.552 611.159 126.836 604.053C126.94 601.465 127.692 598.685 125.826 596.519C124.532 595.017 122.315 594.511 120.626 593.597C117.842 592.089 113.529 587.237 118.953 586.193C122.637 585.483 126.552 587.961 130.118 588.419ZM255.38 321.144C258.69 324.84 262.288 328.376 265.426 332.215C267.225 334.418 268.5 337.064 270.431 339.151C274.66 343.722 278.874 338.657 282.619 335.696C297.347 324.052 311.207 311.434 325.24 298.971C331.926 293.033 339.039 287.557 345.618 281.506C352.283 275.377 357.832 268.202 364.076 261.671C367.075 258.535 370.665 255.424 372.516 251.418C374.096 248.002 374.444 244.286 376.244 240.908C379.36 235.058 385.074 228.267 383.764 221.192C379.905 225.237 373.479 239.732 366.746 232.934C361.941 228.082 366.849 220.91 366.635 215.253C362.073 217.189 363.259 225.039 358.395 226.428C355.764 227.18 353.514 224.798 352.287 222.71C350.166 219.1 350.944 215.322 351.908 211.492C352.564 208.882 356.754 200.275 352.61 199.213C349.019 198.292 346.01 204.897 344.819 207.237C342.638 211.529 340.949 215.967 338.554 220.166C334.424 227.405 329.667 234.321 325.131 241.311C315.79 255.706 305.138 269.218 294.181 282.413C282.477 296.506 269.809 309.795 255.38 321.144ZM359.145 366.931C358.673 379.612 347.776 389.228 338.349 396.279C326.301 405.29 315.187 415.531 300.818 420.659C295.286 422.634 288.378 422.065 286.162 428.291C285.296 430.726 286.082 431.62 287.021 434.07C288.489 437.904 289.372 442.061 290.069 446.096C292.439 459.824 290.135 473.804 281.886 485.233C277.501 491.309 271.898 496.474 266.105 501.183C260.326 505.881 254.86 511.361 248.489 515.247C234.901 523.536 219.806 528.295 204.138 530.585C195.989 531.777 187.807 532.838 179.577 533.259C175.309 533.477 171.033 533.517 166.763 533.33C164.855 533.246 157.76 531.634 156.381 532.727C155.32 533.569 154.847 538.664 154.635 540.07C154.184 543.042 153.829 545.973 153.215 548.92C151.982 554.835 150.321 561.526 152.138 567.493C152.664 569.219 153.09 570.624 154.688 571.204C155.701 571.572 157.496 570.925 158.52 570.82C160.837 570.582 163.024 570.489 165.354 570.736C173.001 571.545 180.51 573.499 188.238 572.967C204.714 571.832 221.206 570.672 237.531 568.094C245.472 566.84 253.091 564.467 260.9 562.635C268.343 560.888 275.782 559.124 282.729 555.843C296.339 549.413 308.918 540.908 320.154 530.945C332.15 520.308 340.091 507.7 347.595 493.63C354.187 481.27 359.745 468.76 359.456 454.511C359.273 445.494 357.981 434.322 363.194 426.369C365.576 422.737 370.38 419.37 374.856 421.291C382.979 424.778 375.305 431.682 372.207 435.464C367.744 440.913 368.344 449.21 367.881 455.874C367.334 463.738 365.567 470.635 363.844 478.239C362.158 485.682 365.559 494.512 365.895 502.105C366.26 510.338 366.02 518.58 365.928 526.817C365.745 543.199 366.506 559.537 366.45 575.917C366.42 584.412 366.637 592.949 366.1 601.432C365.611 609.168 364.026 616.569 362.639 624.163C361.278 631.618 359.294 640.545 359.753 648.123C378.366 641.038 396.484 632.669 415.384 626.34C409.489 621.2 409.227 613.936 408.751 606.687C408.125 597.128 406.552 587.65 405.865 578.091C404.509 559.212 404.89 539.352 406.496 520.494C408.22 500.248 411.278 480.07 411.907 459.739C412.21 449.945 411.452 440.126 409.857 430.461C408.513 422.319 407.346 412.073 403.1 404.859C399.043 397.965 391.585 393.586 385.361 388.89C376.26 382.024 367.83 374.303 359.145 366.931ZM360.272 102.123C362.602 105.274 365.235 108.182 368.022 110.935C370.897 113.776 372.121 113.148 375.561 111.671C382.401 108.731 382.27 105.331 378.452 99.4375C369.595 85.7675 366.235 69.4883 356.864 56.0976C347.631 42.9043 334.2 32.2446 320.1 24.6369C304.969 16.473 288.572 13.8753 271.517 14.1189C262.802 14.2437 254.03 14.8452 245.369 15.8218C236.943 16.7711 229.449 19.536 221.293 21.6236C217.187 22.6741 212.953 23.5458 208.961 24.9895C205.459 26.2556 202.31 28.2111 198.772 29.3943C191.026 31.9823 183.231 34.875 176.242 39.1078C169.409 43.2472 163.253 47.6617 157.047 52.7432C150.62 58.0059 145.038 64.1221 138.088 68.7426C131.761 72.9505 126.729 78.6178 120.992 83.5485C114.998 88.6996 109.47 95.0121 104.973 101.522C100.576 107.887 98.9026 116.123 96.2466 123.301C93.1549 131.656 90.0882 140.587 88.9234 149.445C86.7527 165.951 91.6243 185.244 97.8185 200.519C103.945 215.627 113.874 228.233 125.721 239.294C131.496 244.689 137.798 249.585 144.859 253.192C150.899 256.278 158.775 261.826 165.349 257.949C168.011 256.379 170.172 254.554 173.249 253.847C176.613 253.075 179.908 253.391 182.623 250.925C184.931 248.829 186.035 246.299 189.065 245.034C192.658 243.533 196.907 243.26 200.754 243.272C209.393 243.301 218.037 245.463 226.282 247.861C233.838 250.058 240.161 253.372 248.188 251.364C254.153 249.872 263.72 245.905 265.006 239.067C266.155 232.955 261.72 225.054 259.487 219.585C256.4 212.027 253.604 204.592 251.665 196.646C250.128 190.35 247.715 180.277 252.053 174.522C256.316 168.868 266.171 168.936 272.294 170.358C276.307 171.29 279.996 173.167 284.011 174.113C288.101 175.077 292.333 175.561 296.505 176.034C310.964 177.669 331.534 173.972 330.764 155.496C330.079 139.029 321.005 122.522 326.319 106.035C328.484 99.3146 332.908 91.5427 340.275 89.7689C346.118 88.3616 354.015 89.8367 359.17 92.893C363.306 95.3459 367.405 100.483 360.272 102.123ZM69.9174 175.675C55.3427 178.518 45.7038 193.881 43.0326 207.504C41.8223 213.677 41.3946 221.029 43.7357 227.002C46.4342 233.888 54.0608 236.762 60.7906 238.206C68.4839 239.857 75.3011 239.212 81.4 233.879C84.0809 231.533 86.3523 228.801 88.2791 225.816C90.249 222.763 92.9893 220.539 91.0079 217.127C86.0975 208.673 81.9072 200.368 78.673 191.068C77.2297 186.918 75.9472 182.863 74.9893 178.589C74.2291 175.195 73.8608 173.124 69.9174 175.675ZM197.564 267.893C194.744 270.609 191.504 272.773 187.864 274.233C183.871 275.834 182.659 275.065 182.857 279.684C183.076 284.784 183.113 288.866 180.788 293.612C179.7 295.834 175.68 298.832 176.439 301.331C177.529 304.918 188.693 308.545 191.95 309.799C199.742 312.801 208.833 312.862 216.188 308.621C224.731 303.695 225.487 294.764 222.269 286.121C221.926 285.199 220.677 283.641 220.984 282.634C221.548 280.789 223.869 281.055 225.201 281.76C228.093 283.29 229.301 287.943 229.924 290.847C231.587 298.605 228.532 307.007 222.726 312.352C219.775 315.067 216.085 316.882 212.321 318.19C210.185 318.933 207.943 319.52 205.687 319.747C203.864 319.93 201.562 319.355 199.821 319.875C196.753 320.789 196.616 324.573 195.849 327.339C194.479 332.283 193.907 337.635 193.727 342.75C193.436 351.023 194.421 361.563 199.18 368.577C210.283 384.941 231.757 390.621 248.523 399.042C257.435 403.519 265.699 409.143 273.634 415.155C274.418 415.749 275.591 416.913 276.532 417.376C279.713 418.941 276.935 418.371 278.971 417.337C280.539 416.541 281.881 414.812 283.501 413.911C287.232 411.834 291.422 410.713 295.217 408.751C304.04 404.188 311.846 398.526 319.677 392.483C327.701 386.29 335.828 380.636 343.148 373.587C346.235 370.615 349.71 368.165 352.841 365.321C355.995 362.455 351.959 361.266 349.288 359.157C340.198 351.978 331.221 344.571 321.514 338.226C318.276 336.109 315.42 333.254 312.042 331.383C308.514 329.429 306.42 331.18 303.641 333.665C300.604 336.38 297.709 339.042 294.329 341.365C289.865 344.434 284.675 345.911 280.187 348.833C283.068 351.849 290.094 352.858 291.113 357.427C292.147 362.057 285.252 365.67 282.029 367.458C276.339 370.616 270.062 372.533 263.721 373.903C258.445 375.042 250.623 373.327 246.395 377.309C245.189 374.759 244.059 373.427 246.043 370.988C248.025 368.553 251.558 368.134 254.355 367.197C261.908 364.666 269.348 361.294 276.657 358.133C275.687 355.863 273.262 354.309 271.414 352.831C268.775 350.72 266.558 348.381 264.41 345.756C260.312 340.749 256.637 335.408 252.734 330.254C251.042 328.018 249.498 325.786 246.407 327.024C243.678 328.117 241.015 330.95 238.393 332.418C232.462 335.738 227.274 338.925 220.746 341.037C218.116 341.888 207.345 344.312 210.21 337.728C211.059 335.776 213.897 334.972 215.645 334.119C218.875 332.541 222.095 330.933 225.207 329.131C231.6 325.431 237.238 320.65 243.219 316.346C249.817 311.598 256.528 306.99 262.723 301.713C256.559 297.63 249.721 294.64 243.347 290.906C236.904 287.131 230.414 283.719 223.75 280.366C218.444 277.696 213.051 274.849 208.213 271.399C206.29 270.026 199.673 264.324 197.564 267.893ZM391.377 135.097C390.566 135.301 389.764 135.533 388.968 135.791C394.372 144.053 388.406 154.281 390.097 163.22C395.086 160.27 395.739 148.795 403.314 150.917C411.472 153.202 407.412 163.243 409.882 168.986C413.738 165.616 418.239 168.766 419.83 172.764C421.552 177.096 419.164 181.095 419.967 185.382C420.797 189.818 423.276 186.907 424.65 184.291C426.401 180.956 427.931 176.448 427.286 172.633C426.501 167.994 423.386 163.68 421.456 159.466C419.539 155.279 417.723 151.006 414.949 147.291C409.693 140.257 400.565 133.937 391.377 135.097ZM443.634 234.17C440.107 225.365 434.886 217.302 431.55 208.427C430.575 205.832 430.03 201.695 427.45 200.096C425.755 199.045 423.499 199.676 421.63 199.111C419.766 198.548 417.802 197.206 416.465 195.821C414.02 193.288 413.227 189.812 410.343 187.606C406.621 184.759 403.746 183.667 401.975 178.91C400.585 175.174 400.582 174.626 396.404 175.46C391.843 176.37 388.138 175.255 384.991 171.692C379.662 165.659 379.073 157.16 381.688 149.878C382.911 146.472 385.039 142.51 383.272 138.945C381.629 135.632 377.642 133.254 375.115 130.614C368.728 123.941 363.729 116.132 357.74 109.13C356.306 107.455 354.841 105.784 353.736 103.864C353.034 102.644 352.62 100.546 350.993 100.201C348.194 99.6066 344.285 104.448 342.877 106.211C332.567 119.115 339.943 136.69 341.199 151.237C341.838 158.645 343.275 167.526 339.989 174.502C336.894 181.075 329.058 184.356 322.455 186.186C313.548 188.655 303.982 188.546 294.919 187.047C290.172 186.262 285.616 184.922 281.123 183.224C276.525 181.486 271.743 178.497 267.057 181.65C261.009 185.721 262.878 193.888 264.206 199.84C266.376 209.563 270.165 218.632 273.517 227.973C276.332 235.818 278.611 245.66 272.693 252.68C266.782 259.691 256.979 264.079 247.855 263.715C228.939 262.961 211.672 248.857 192.342 254.626C195.974 256.127 199.813 257.01 203.362 258.729C207.646 260.803 211.611 263.56 215.77 265.868C223.753 270.296 231.764 274.661 239.566 279.406C246.616 283.692 253.281 288.388 260.009 293.139C268.393 299.058 272.809 292.502 278.187 286.108C289.929 272.151 301.106 257.371 311.774 242.58C321.049 229.722 329.658 216.296 336.365 201.931C338.765 196.791 342.806 188.072 349.829 189.086C356.063 189.986 359.699 197.508 362.922 202.112C365.171 200.5 367.099 198.346 370.135 199.233C372.654 199.967 374.395 202.551 375.51 204.755C376.276 206.27 376.798 211.375 378.08 212.143C378.991 212.69 382.475 211.515 384.028 211.874C389.343 213.102 391.042 219.934 390.988 224.675C390.913 231.211 388.182 237.75 385.944 243.802C380.928 257.369 372.334 267.972 362.861 278.692C353.246 289.571 343.181 299.432 332.337 309.086C329.661 311.468 327.011 313.878 324.402 316.334C322.262 318.347 318.874 320.442 317.2 322.808C314.101 327.185 322.391 329.172 325.476 330.774C338.749 337.666 350.981 346.744 362.67 356C374.725 365.546 386.847 375.129 398.43 385.244C409.761 395.139 420.464 405.685 432.397 414.887C444.656 424.34 457.501 433.068 470.099 442.063C482.709 451.067 494.979 460.54 507.574 469.556C519.883 478.366 533.096 485.919 546.043 493.741C552.815 497.834 559.623 501.867 566.427 505.907C571.929 509.174 577.9 514.251 584.423 514.664C590.3 515.036 595.874 517.199 599.387 510.809C602.053 505.958 600.949 499.285 598.614 494.573C595.765 488.821 591.307 483.533 587.726 478.21C583.607 472.09 579.785 465.793 575.72 459.641C571.823 453.742 567.491 448.298 563.143 442.739C558.735 437.103 555.39 430.751 551.461 424.784C543.064 412.027 534.43 399.501 526.469 386.459C508.211 356.547 491.859 325.668 476.233 294.325C474.857 291.563 442.735 234.661 443.634 234.17ZM417.927 418.07C427.74 451.988 422.081 486.478 420.069 520.983C419.052 538.429 418.897 555.984 418.446 573.454C418.226 581.946 418.242 590.445 418.594 598.934C418.772 603.204 419.084 607.46 419.388 611.722C419.657 615.491 418.646 619.658 419.121 623.294C419.73 627.952 428.978 628.866 426.137 634.844C424.231 638.855 417.556 639.467 413.98 641.158C415.57 642.999 418.057 645.754 420.709 645.928C423.097 646.083 424.942 644.012 427.083 643.229C428.984 642.533 431.599 641.859 432.799 644.078C434.056 646.401 431.424 648.983 430.383 650.783C433.922 651.468 436.37 649.355 439.563 649.549C442.922 649.753 443.074 653.058 445.282 654.971C447.806 657.158 452.214 657.628 455.326 658.548C458.947 659.618 462.586 660.946 465.883 662.804C471.778 666.125 476.841 672.4 479.02 678.822C481.277 685.478 477.752 691.238 472.501 695.323C470.544 696.844 467.74 698.612 465.145 697.792C462.179 696.854 461.716 694.441 458.102 694.62C454.856 694.781 451.775 696.077 448.512 696.243C443.716 696.488 438.925 695.614 434.124 695.798C414.75 696.542 395.374 696.708 376.033 694.845C371.028 694.363 366.123 693.969 361.19 693.811C357.354 693.689 357.033 690.828 356.383 687.236C354.813 678.562 358.285 670.022 356.566 661.593C356.68 662.149 353.964 660.702 353.637 660.427C351.643 658.749 350.977 656.365 350.384 653.887C348.802 647.29 348.818 640.568 349.307 633.84C350.419 618.568 353.26 603.438 353.028 588.086C352.91 580.348 353.144 572.628 353.146 564.893C353.148 557.788 353.791 550.776 353.851 543.72C353.982 528.25 355.611 512.953 356.065 497.5C352.845 500.632 351.137 505 349.092 508.909C346.576 513.715 343.77 518.472 340.697 522.944C334.353 532.18 325.841 539.697 317.023 546.511C300.195 559.514 281.913 569.585 261.296 575.1C238.977 581.07 216.405 585.101 193.396 587.365C188.072 587.889 182.689 588.173 177.354 587.654C173.86 587.315 168.181 584.492 164.861 585.924C161.088 587.552 160.329 591.467 155.382 590.369C153.494 589.95 152.127 588.689 150.474 587.839C148.043 586.588 147.946 587.452 145.625 587.611C143.037 587.789 141.486 586.496 139.23 588.58C137.315 590.349 137.501 591.589 139.25 593.245C141.709 595.573 145.645 595.963 148.106 598.394C150.501 600.758 150.072 603.664 146.373 603.699C142.651 603.735 139.343 601.085 135.706 600.74C136.481 611.5 139.719 623.521 136.129 634.078C134.463 638.975 130.89 642.13 125.561 642.096C116.643 642.039 108.821 633.835 103.45 627.445C100.481 623.913 98.0745 619.944 95.2079 616.324C92.2771 612.624 89.1339 608.903 87.4558 604.428C85.671 599.667 86.1921 594.889 87.1901 590.002C88.4253 583.952 89.5731 577.841 91.0662 571.849C93.9606 560.23 99.7841 549.623 102.724 538.039C103.836 533.656 103.822 528.513 106.629 524.755C109.6 520.775 114.223 520.52 118.808 520.775C124.483 521.09 130.154 521.718 135.799 522.36C139.364 522.765 147.175 525.336 150.076 523.145C151.075 522.391 151.077 520.414 152.245 519.732C153.371 519.074 155.189 519.546 156.42 519.638C162.515 520.09 168.663 520.639 174.77 520.817C197.47 521.481 221.424 517.943 241.691 507.398C251.096 502.504 258.261 494.8 265.82 487.524C273.253 480.369 279.731 472.668 281.731 462.281C283.557 452.798 282.866 441.457 279.833 432.278C276.879 423.337 266.394 417.921 258.763 413.512C248.181 407.398 236.947 402.331 225.546 397.942C223.736 397.246 221.536 396.359 219.546 396.715C217.105 397.152 215.466 399.266 213.246 400.2C210.607 401.309 207.37 401.315 204.585 401.963C201.885 402.591 199.253 403.455 196.503 403.87C187.842 405.176 175.671 404.133 168.513 398.601C156.813 389.559 163.882 376.762 167.641 365.756C163.667 365.622 160.358 366.551 156.565 364.851C152.786 363.156 149.831 360.156 148.108 356.398C144.974 349.56 146.784 341.703 147.709 334.573C148.127 331.349 148.604 328.15 149.834 325.122C150.787 322.777 152.351 320.542 152.929 318.062C153.565 315.33 152.74 315.171 150.462 313.865C146.949 311.851 144.421 309.535 142.271 306C138.06 299.077 137.956 291.52 141.406 284.237C142.803 281.29 146.135 277.237 145.756 273.795C145.43 270.833 142.078 268.526 140.104 266.587C134.008 260.598 127.527 255.069 120.767 249.845C117.608 247.403 114.128 245.187 111.257 242.413C109.153 240.381 107.016 235.96 104.139 234.891C101.259 233.822 99.3412 237.038 97.3349 238.762C94.2075 241.449 91.2112 244.541 87.8035 246.87C81.6912 251.048 74.1126 250.266 67.2105 248.932C60.0001 247.537 53.3127 245.082 47.1653 241.031C44.7228 239.421 41.8702 236.152 38.8629 235.89C35.6506 235.611 32.161 238.804 29.8653 240.721C23.872 245.726 22.0726 253.5 18.5818 260.224C14.6839 267.733 13.0282 275.527 14.0887 283.968C15.043 291.562 17.9678 297.3 22.3195 303.434C23.2186 304.703 25.3256 307.1 23.7858 308.503C21.9021 310.22 18.0418 306.777 16.7769 305.665C4.21204 294.614 -2.92914 277.963 1.14954 261.294C3.33903 252.344 7.62216 244.063 12.5957 236.362C14.7106 233.086 16.7739 229.811 20.4521 228.14C24.6388 226.239 29.383 226.465 33.8554 226.009C30.762 210.867 29.7937 194.39 39.2991 181.193C46.5932 171.066 61.5308 162.205 73.3694 170.417C72.8841 159.254 71.2928 148.653 74.2637 137.661C75.5953 132.736 77.419 127.943 79.6607 123.358C81.8568 118.866 84.8896 115.056 86.6641 110.38C93.6639 91.934 107.095 75.4567 121.44 62.218C135.941 48.8358 150.17 32.5099 168.436 24.1377C187.492 15.402 206.899 7.55194 227.561 3.5827C249.006 -0.53739 271.049 -1.3831 292.653 2.51769C311.591 5.93746 329.118 17.4357 343.448 29.8317C359.8 43.9766 370.357 61.0294 378.708 80.7823C380.542 85.1211 382.311 89.4975 384.561 93.6442C387.057 98.2453 390.263 102.524 392.099 107.461C393.736 111.864 394.012 116.641 391.096 120.575C389.046 123.341 384.84 123.965 383.048 126.495C382.143 127.771 382.234 128.985 384.223 129.365C386.277 129.757 387.256 127.466 388.733 126.547C392.409 124.259 397.596 126.209 401.312 127.508C410.125 130.589 417.023 136.123 422.297 143.793C427.344 151.134 430.696 159.474 434.028 167.683C436.131 172.862 438.132 178.007 439.29 183.494C439.725 185.558 440.332 191.154 437.07 188.702C435.747 187.708 433.857 195.252 434.214 196.453C435.454 200.631 439.878 204.548 442.481 207.931C448.603 215.883 452.703 224.791 457.021 233.785C466.375 253.261 476.791 272.168 486.798 291.307C507.177 330.282 529.448 367.76 552.808 405.014C564.382 423.471 576.314 441.613 588.686 459.546C594.146 467.459 599.622 475.377 604.962 483.371C609.501 490.164 613.98 497.728 612.812 506.206C611.743 513.969 607.131 520.204 599.673 522.743C595.677 524.104 590.932 525.672 586.655 525.254C581.978 524.797 577.851 521.668 573.953 519.319C556.037 508.522 538.119 497.736 520.192 486.959C500.143 474.906 481.807 460.595 462.679 447.194C452.946 440.376 442.91 434.231 432.769 428.059C430.485 426.669 420.124 416.711 417.927 418.07Z" fill="#2D3D8B"/>
<path fill-rule="evenodd" clip-rule="evenodd" d="M244.331 452.383C239.434 459.593 234.284 466.369 227.391 471.84C220.129 477.603 212.535 482.272 204.427 486.744C190.128 494.63 170.961 501.614 154.353 498.039C149.63 497.023 142.074 492.89 146.18 486.99C148.244 484.025 152.671 484.798 155.805 484.961C160.854 485.225 165.269 485.512 170.107 483.814C178.996 480.691 187.946 477.746 196.626 474.071C205.033 470.51 212.406 465.627 220.119 460.83C227.353 456.331 232.871 450.946 239.226 445.507C240.966 444.018 243.958 441.411 245.604 444.308C246.794 446.401 244.983 450.336 244.331 452.383Z" fill="#2D3D8B"/>
<path fill-rule="evenodd" clip-rule="evenodd" d="M442.212 106.069C441.665 109.192 440.185 115.406 435.791 114.557C430.185 113.475 432.947 102.501 432.861 98.7758C432.489 82.544 427.197 66.9358 419.36 52.8625C415.463 45.866 410.663 39.3958 407.122 32.199C406.434 30.8006 404.346 27.3325 405.863 25.8155C407.685 23.9937 411.176 26.7429 412.46 28.043C417.422 33.0705 421.375 40.6075 425.205 46.5234C430.32 54.4214 434.838 62.7629 438.082 71.6187C441.999 82.3164 444.199 94.723 442.212 106.069Z" fill="#2D3D8B"/>
<path fill-rule="evenodd" clip-rule="evenodd" d="M452.699 54.1614C453.223 56.9761 455.785 64.6351 451.216 65.3143C446.037 66.0844 444.428 53.3229 442.99 49.942C442.232 48.1597 438.192 40.31 440.298 38.6013C444.682 35.0439 451.66 51.8962 452.699 54.1614Z" fill="#2D3D8B"/>
<path fill-rule="evenodd" clip-rule="evenodd" d="M208.948 433.991C204.032 438.47 198.325 438.207 192.12 437.781C188.969 437.564 181.672 435.698 186.743 431.79C189.392 429.749 210.175 428.345 208.948 433.991Z" fill="#2D3D8B"/>
<path fill-rule="evenodd" clip-rule="evenodd" d="M592 516C592.35 515.305 595.299 511.969 595.935 513.318C596.536 514.59 592.779 515.962 592 516Z" fill="#2D3D8B"/>
<path fill-rule="evenodd" clip-rule="evenodd" d="M201 268.392C200.395 269.639 197.87 268.55 197 268.739C198.182 266.208 199.587 266.75 201 268.392Z" fill="#2D3D8B"/>
<path fill-rule="evenodd" clip-rule="evenodd" d="M391 136C390.737 137 390.475 138 390.213 139C389.809 138.251 389.404 137.502 389 136.752C389.666 136.502 390.334 136.251 391 136Z" fill="#2D3D8B"/>
<path fill-rule="evenodd" clip-rule="evenodd" d="M395.828 324.935C402.137 325.571 408.467 325.893 414.801 326.088C420.148 326.252 422.344 325.241 423.027 319.684C423.836 313.096 424.112 306.449 424.921 299.858C425.288 296.864 428.192 290.881 424.694 289.278C421.762 287.935 417.189 289.859 414.118 290.085C410.697 290.337 405.535 289.294 402.511 291.322C399.278 293.49 399.982 301.082 399.431 304.645C398.381 311.438 397.115 318.185 395.828 324.935ZM392.818 292.938C387.1 293.37 381.363 293.711 375.661 294.32C373.123 294.592 367.987 295.847 365.848 294C360.827 289.667 379.592 288.146 381.721 287.804C385.309 287.228 391.449 287.993 393.749 284.606C396.024 281.256 395.449 275.627 396.037 271.738C396.922 265.885 397.934 260.04 398.525 254.149C398.723 252.169 398.44 245.628 400.531 244.656C405.337 242.422 403.827 265.443 403.748 267.171C403.613 270.142 403.464 273.127 403.05 276.073C402.817 277.734 401.996 279.98 402.502 281.648C403.951 286.431 412.183 283.673 415.933 283.291C420.135 282.863 426.624 284.491 428.015 279.306C429.763 272.79 429.509 265.39 430.157 258.686C430.336 256.832 430.804 242.986 434.221 244.059C438.036 245.258 436.547 256.828 436.512 259.807C436.473 263.169 436.486 266.533 436.258 269.889C436.054 272.904 435.204 276.599 435.833 279.586C436.936 284.823 443.145 282.038 444.947 286.204C446.659 290.163 437.325 287.059 435.582 288.419C432.979 290.45 433.605 298.936 433.233 301.907C432.417 308.434 430.85 315.211 430.34 321.718C429.939 326.855 434.068 326.173 438.27 325.801C441.874 325.482 445.833 324.626 449.445 325.107C452.347 325.492 456.402 328.166 452.177 329.945C445.571 332.728 432.12 327.043 428.801 335.494C428.175 337.088 425.262 355.576 421.602 346.45C420.072 342.635 423.818 336.65 419.823 333.727C418.438 332.713 416.375 332.892 414.768 332.78C410.811 332.504 406.829 332.41 402.864 332.328C398.911 332.246 395.359 331.45 393.832 335.78C392.643 339.154 392.775 342.929 391.825 346.382C391.112 348.97 388.772 353.5 386.345 349.266C384.751 346.485 385.971 341.626 386.286 338.602C386.443 337.088 387.346 333.955 386.197 332.683C384.964 331.318 381.664 332.057 380.104 332.18C375.601 332.537 367.215 334.704 363.768 330.62C360.885 327.203 366.879 327.138 369.236 326.907C371.664 326.669 374.093 326.449 376.519 326.194C379.19 325.912 382.726 326.288 385.24 325.451C389.462 324.045 389.161 318.305 389.438 314.582C389.981 307.309 391.617 300.125 392.818 292.938Z" fill="#2D3D8B"/>
<path fill-rule="evenodd" clip-rule="evenodd" d="M467 308.471C466.659 312.67 466.204 317.378 464.848 321.369C463.822 324.385 461.751 325.302 461.045 321.461C460.597 319.027 463.572 305.308 467 308.471Z" fill="#2D3D8B"/>
<path fill-rule="evenodd" clip-rule="evenodd" d="M200.428 280.822C198.744 279.613 190.769 273.254 196.533 273.003C199.476 272.874 205.817 277.715 205.999 280.401C206.045 281.079 204.595 281.43 204.674 282.086C204.824 283.335 206.673 283.926 207.269 284.919C208.582 287.109 208.037 291.436 206.341 293.518C202.473 298.266 198.178 290.228 201.172 288.651C200.505 289.002 191.551 284.451 191.215 283.423C189.373 277.79 199.975 283.097 200.428 280.822Z" fill="#2D3D8B"/>
<path fill-rule="evenodd" clip-rule="evenodd" d="M214.484 302.988C212.439 303.052 208.331 302.91 206.799 301.45C203.951 298.735 209.506 298.375 211.131 297.11C213.409 295.339 213.856 289.577 217.432 293.142C220.979 296.679 217.86 300.793 214.484 302.988Z" fill="#2D3D8B"/>
<path fill-rule="evenodd" clip-rule="evenodd" d="M185 288.026C188.698 287.484 196.925 295.456 192.933 295.986C190.291 296.337 185.577 290.156 185 288.026Z" fill="#2D3D8B"/>
</svg>
