<svg width="715" height="704" viewBox="0 0 715 704" fill="none" xmlns="http://www.w3.org/2000/svg">
<path fill-rule="evenodd" clip-rule="evenodd" d="M392.702 0.530532C484.037 4.31621 580.113 33.9258 635.88 95.5723C687.442 152.571 652.796 233.507 667.525 304.329C679.366 361.267 723.559 411.773 713.532 468.962C702.422 532.32 667.004 592.783 609.666 634.311C549.613 677.805 470.074 714.351 392.702 701.328C317.711 688.705 294.351 605.924 230.281 570.453C160.179 531.642 37.9611 552.913 5.91777 487.191C-25.4728 422.809 77.2575 366.254 97.8255 298.786C120.609 224.051 73.2562 133.763 131.676 74.6739C192.199 13.4568 298.781 -3.36234 392.702 0.530532Z" fill="#F2D1B3"/>
</svg>
